<svg xmlns="http://www.w3.org/2000/svg" width="32" height="32" viewBox="0 0 32 32">
  <g fill="none" fill-rule="evenodd">
    <path fill="#9659D1" fill-rule="nonzero" d="M23.5 27C23.2238576 27 23 26.7761424 23 26.5 23 26.2238576 23.2238576 26 23.5 26L26.5 26C26.7761424 26 27 26.2238576 27 26.5 27 26.7761424 26.7761424 27 26.5 27L23.5 27zM5.5 27C5.22385763 27 5 26.7761424 5 26.5 5 26.2238576 5.22385763 26 5.5 26L16.5 26C16.7761424 26 17 26.2238576 17 26.5 17 26.7761424 16.7761424 27 16.5 27L5.5 27zM5.5 20C5.22385763 20 5 19.7761424 5 19.5 5 19.2238576 5.22385763 19 5.5 19L8.5 19C8.77614237 19 9 19.2238576 9 19.5 9 19.7761424 8.77614237 20 8.5 20L5.5 20zM16.5 20C16.2238576 20 16 19.7761424 16 19.5 16 19.2238576 16.2238576 19 16.5 19L26.5 19C26.7761424 19 27 19.2238576 27 19.5 27 19.7761424 26.7761424 20 26.5 20L16.5 20zM17.5 13C17.2238576 13 17 12.7761424 17 12.5 17 12.2238576 17.2238576 12 17.5 12L26.5 12C26.7761424 12 27 12.2238576 27 12.5 27 12.7761424 26.7761424 13 26.5 13L17.5 13zM5.5 13C5.22385763 13 5 12.7761424 5 12.5 5 12.2238576 5.22385763 12 5.5 12L13.5 12C13.7761424 12 14 12.2238576 14 12.5 14 12.7761424 13.7761424 13 13.5 13L5.5 13zM23.5 6C23.2238576 6 23 5.77614237 23 5.5 23 5.22385763 23.2238576 5 23.5 5L26.5 5C26.7761424 5 27 5.22385763 27 5.5 27 5.77614237 26.7761424 6 26.5 6L23.5 6zM5.5 6C5.22385763 6 5 5.77614237 5 5.5 5 5.22385763 5.22385763 5 5.5 5L15.5 5C15.7761424 5 16 5.22385763 16 5.5 16 5.77614237 15.7761424 6 15.5 6L5.5 6z"/>
    <rect width="4" height="1" x="14.768" y="22.268" fill="#9659D1" transform="rotate(45 16.768 22.768)"/>
    <rect width="8" height="1" x="11.433" y="12.214" fill="#9659D1" transform="rotate(120 15.433 12.714)"/>
    <path fill="#9659D1" fill-rule="nonzero" d="M23 29L17 29 20 24 23 29zM19.0045221 28L21.0042706 28 20 26 19.0045221 28zM12.5 21C13.3284271 21 14 20.3284271 14 19.5 14 18.6715729 13.3284271 18 12.5 18 11.6715729 18 11 18.6715729 11 19.5 11 20.3284271 11.6715729 21 12.5 21zM12.5 22C11.1192881 22 10 20.8807119 10 19.5 10 18.1192881 11.1192881 17 12.5 17 13.8807119 17 15 18.1192881 15 19.5 15 20.8807119 13.8807119 22 12.5 22zM17 3L22 3 22 8 17 8 17 3zM18 4L18 7 21 7 21 4 18 4z"/>
    <path fill="#9659D1" fill-rule="nonzero" d="M3,1 L3,31 L29,31 L29,1 L3,1 Z M3,0 L29,0 C29.5522847,-1.01453063e-16 30,0.44771525 30,1 L30,31 C30,31.5522847 29.5522847,32 29,32 L3,32 C2.44771525,32 2,31.5522847 2,31 L2,1 C2,0.44771525 2.44771525,1.01453063e-16 3,0 Z"/>
  </g>
</svg>
