<?xml version="1.0" encoding="UTF-8"?>
<svg width="20px" height="20px" viewBox="0 0 20 20" version="1.1" xmlns="http://www.w3.org/2000/svg" xmlns:xlink="http://www.w3.org/1999/xlink">
    <!-- Generator: Sketch 64 (93537) - https://sketch.com -->
    <title>Artboard Copy 28</title>
    <desc>Created with Sketch.</desc>
    <g id="Artboard-Copy-28" stroke="none" stroke-width="1" fill="none" fill-rule="evenodd">
        <g id="OC">
            <rect id="Rectangle" x="0" y="0" width="20" height="20"></rect>
            <path d="M11.679912,10.0532717 C10.706956,10.192204 9.57377618,10.192204 8.60189545,10.0532717 C8.34489225,10.0167106 8.0962766,9.96982632 7.8629306,9.91369424 C6.67964054,9.63088318 6.28133934,9.23086146 6.28133934,9.09192919 C6.28133934,8.78374041 7.63410097,8.02950591 10.1415489,8.02950591 C12.6487819,8.02950591 14.0013284,8.78374041 14.0013284,9.09192919 C14.0013284,9.23086146 13.6028121,9.63088318 12.419092,9.91369424 C12.185746,9.97004138 11.9371303,10.0169257 11.679912,10.0532717 L11.679912,10.0532717 Z M11.6603411,12.7299762 C10.7032999,12.8646072 9.57958295,12.8646072 8.62168147,12.7299762 C8.3601619,12.6927699 8.10896546,12.6456705 7.87518933,12.5903987 C6.68265146,12.3075877 6.28133934,11.9056304 6.28133934,11.7654077 L6.28133934,10.4399594 L6.31424436,10.4567345 C6.36306421,10.4818971 6.41360459,10.5061995 6.46651069,10.5311471 L6.51984692,10.5552344 C6.58501175,10.5846984 6.65211216,10.6133021 6.72394402,10.6412606 L6.75577371,10.6533043 C6.8149167,10.6761012 6.87599529,10.698253 6.93857933,10.7199746 L7.00159351,10.7416962 C7.06267209,10.7619123 7.12504107,10.7814833 7.19493734,10.8025597 L7.23042314,10.813528 C7.3065563,10.8358948 7.38397986,10.8574014 7.46376914,10.8776175 L7.52613812,10.8931023 C7.58850709,10.908802 7.6519514,10.9238566 7.71625597,10.9384811 L7.78228106,10.9535356 C7.86379086,10.9709559 7.94573079,10.9877311 8.03132684,11.003861 L8.07283447,11.0113882 C8.14488139,11.0247223 8.21692831,11.036766 8.29112589,11.0490247 L8.36403307,11.0602081 C8.44188676,11.0724668 8.52081578,11.0838653 8.62748824,11.0976295 C8.71588014,11.109243 8.80427203,11.1193511 8.89502965,11.128814 L8.96600124,11.1359111 C9.03761804,11.1427932 9.10944989,11.1494603 9.17977629,11.1548369 L9.24580138,11.1604286 C9.33505354,11.1670956 9.42495089,11.1726873 9.51570851,11.1772037 L9.57119539,11.1795694 C9.64517791,11.1830105 9.71937548,11.1858063 9.79378813,11.188172 L9.86777064,11.1901076 C10.0507913,11.1950541 10.2323066,11.1950541 10.4138218,11.1901076 L10.4893098,11.188172 C10.5635073,11.1858063 10.6374899,11.1830105 10.7110422,11.1795694 L10.7680346,11.1772037 C10.858147,11.1726873 10.9480443,11.1668806 11.0392321,11.1599985 L11.1007408,11.1548369 C11.1730028,11.1494603 11.2446196,11.1427932 11.3166665,11.1359111 L11.3887134,11.128814 C11.4779656,11.1193511 11.5667876,11.109243 11.6827079,11.0939734 C11.761852,11.0838653 11.840781,11.0724668 11.9186347,11.0602081 L11.9917569,11.0485946 C12.0653093,11.036766 12.1380014,11.0247223 12.2085429,11.0116033 L12.2528464,11.0032158 C12.3367219,10.9877311 12.419092,10.9709559 12.5016771,10.9531055 L12.5666269,10.9384811 C12.6307164,10.9238566 12.6937305,10.908802 12.7563146,10.8931023 L12.8199739,10.8776175 C12.8984728,10.8569713 12.9767567,10.8356798 13.0522446,10.813528 L13.0931071,10.8008392 C13.1567664,10.7814833 13.2197806,10.7619123 13.2819345,10.741051 L13.3449487,10.7195444 C13.4066725,10.698253 13.4668908,10.6761012 13.5249585,10.6541646 L13.5613045,10.6406154 C13.6305556,10.6130871 13.6974409,10.5846984 13.7641112,10.5548043 L13.8176625,10.5300718 C13.8690632,10.5061995 13.9193885,10.4821122 13.9675631,10.4569495 L14.0013284,10.4395292 L14.0013284,11.7654077 C14.0013284,11.9056304 13.6000163,12.3075877 12.4074784,12.5903987 C12.1747776,12.6456705 11.9231511,12.6925548 11.6603411,12.7299762 L11.6603411,12.7299762 Z M7.7571184,13.6261539 C9.19160489,13.942085 11.0912779,13.942085 12.5255494,13.6261539 L12.5257644,13.6261539 C12.7251301,13.5820655 12.9128822,13.5336757 13.083214,13.4824902 C13.2378461,13.4366812 13.3866714,13.3859258 13.5256037,13.3323745 C13.6974409,13.2661343 13.8563743,13.1945175 14.0013284,13.1181693 L14.0008983,14.4440478 C14.0004681,14.7533119 12.6474915,15.5099121 10.1415489,15.5099121 C7.63496123,15.5099121 6.28176948,14.7530968 6.28133934,14.4440478 L6.28133934,13.1181693 C6.42564826,13.1945175 6.58501175,13.2661343 6.75684903,13.3325896 C6.89470598,13.3854957 7.04310114,13.4353908 7.19837838,13.4822751 C7.37494711,13.5351812 7.56291431,13.5835709 7.7571184,13.6261539 L7.7571184,13.6261539 Z M6.54070827,15.9174611 L7.00159351,16.0942449 C7.06310222,16.114461 7.12525613,16.1346772 7.1895607,16.1540331 L7.229993,16.1660767 C7.29365237,16.1847874 7.35903227,16.2026379 7.43301478,16.2219938 L7.78163586,16.3056542 C7.86336073,16.3237197 7.94594586,16.3409249 8.03412269,16.3572699 L8.62813344,16.4506083 C8.7160952,16.4617917 8.80427203,16.4718998 8.89675017,16.4817928 L9.86906103,16.5433015 C10.0510064,16.5469576 10.2316614,16.5469576 10.4131766,16.5433015 L10.9407321,16.5189991 L11.3893586,16.4813627 C11.4781807,16.4718998 11.5667876,16.4617917 11.6833531,16.4469522 L12.2522012,16.3566247 C12.3365068,16.3409249 12.419307,16.3237197 12.5051181,16.3047939 L12.8571803,16.2200582 C12.9234204,16.2026379 12.9890154,16.1847874 13.053535,16.1656466 L13.0924619,16.1540331 C13.1565514,16.1348922 13.2195655,16.1148912 13.2843002,16.0929545 L13.4819454,16.0226281 L14.0013284,15.7912177 L14.0013284,17.123333 C14.0013284,17.4328122 12.6487819,18.1894124 10.1415489,18.1894124 C7.63410097,18.1894124 6.28133934,17.4328122 6.28133934,17.123333 L6.28133934,15.7925081 L6.54070827,15.9174611 Z M10.1415489,6.99353568 C7.70851361,6.99353568 5.24558418,7.71443504 5.24558418,9.09192919 L5.24558418,17.123333 C5.24558418,18.5034079 7.70851361,19.2253826 10.1415489,19.2253826 C12.5741541,19.2253826 15.0368685,18.5034079 15.0368685,17.123333 L15.0368685,9.09192919 C15.0368685,7.71443504 12.5741541,6.99353568 10.1415489,6.99353568 L10.1415489,6.99353568 Z" id="Fill-1" fill="#1B76BC"></path>
            <path d="M15.7421971,5.12345565 C15.4202442,5.09270129 15.094205,5.09872312 14.7701013,5.14087595 C14.3668536,2.84505237 12.4916981,1.10581815 10.1498505,0.883225414 C7.48088835,0.629448194 5.05236939,2.46352627 4.55277237,5.08044256 C2.35329811,5.14410193 0.492982042,6.87064729 0.283293237,9.0742078 C0.0953260414,11.0510893 1.26033553,12.9212984 3.11462977,13.6213364 C3.15785792,13.6381115 3.20409699,13.6488648 3.25205658,13.6533812 C3.48690804,13.675748 3.70907065,13.5370308 3.79230097,13.3165887 C3.89402692,13.0460364 3.75703024,12.7427941 3.48669298,12.640638 C2.07199251,12.1066305 1.1846325,10.6807466 1.32786608,9.17356803 C1.50163896,7.34594191 3.13140487,5.98479274 4.96118164,6.14006999 C5.24635842,6.16372718 5.50078083,5.95102746 5.52787908,5.66520549 C5.74444998,3.38787754 7.77316228,1.7110123 10.0504902,1.92758319 C12.0925366,2.12178729 13.6666006,3.74918748 13.7932741,5.79639541 C13.802952,5.95446851 13.8823112,6.09791716 14.0102751,6.18996517 C14.1393144,6.28330357 14.3008285,6.31212234 14.4524497,6.27082977 C14.84774,6.16480251 15.2481918,6.13039204 15.6428369,6.16781343 C17.4904641,6.34352189 18.8505379,7.98963278 18.6750445,9.83704492 C18.5690173,10.9519442 17.9177991,11.9380192 16.9327994,12.4752527 C16.6792373,12.614185 16.5856838,12.9333421 16.7237558,13.1869042 C16.7910713,13.3097066 16.9022601,13.3993889 17.036676,13.4389609 C17.171307,13.478533 17.31282,13.4630482 17.4356224,13.3959478 C18.7266603,12.6913934 19.5804701,11.3979899 19.7194023,9.93619008 C19.9497374,7.51304776 18.1657696,5.35379073 15.7421971,5.12345565" id="Fill-3" fill="#1B76BC"></path>
        </g>
    </g>
</svg>