<svg xmlns="http://www.w3.org/2000/svg" viewBox=".5 .5 32 32">
    <style>.st1{fill:#004aff}.st2{fill:#97c1ff}</style>
    <g id="Network_Globe">
        <path d="M17.9736347 3.2363257C17.8398457 1.9814476 16.7905254.9999964 15.5.9999964s-2.3398457.9814512-2.4736357 2.2363293C6.753416 4.3999037 2.0000009 9.8901348 2.0000009 16.4999957c0 6.6093807 4.7534151 12.1005898 11.0263634 13.2636776.13379 1.254879 1.1831093 2.2363224 2.4736357 2.2363224s2.3398457-.9814434 2.4736347-2.2363224c6.2724609-1.1630878 11.0263634-6.6542969 11.0263634-13.2636776 0-6.6098609-4.7539024-12.1000919-11.0263634-13.26367M15.5 2.0000007c.8286114 0 1.5000019.6713827 1.5000019 1.5000026 0 .8286119-.6713905 1.4999948-1.5000019 1.4999948-.8286123 0-1.5000029-.6713829-1.5000029-1.4999948 0-.8286199.6713906-1.5000026 1.5000029-1.5000026m-2.449707 15.0000012c.1987333.9794884.970212 1.7509747 1.9497089 1.9492207V22H9.6953106c-.4018574-1.5283203-.6430645-3.2216816-.6816368-4.9999981h4.0366192m-4.0366192-1.0000038c.0385723-1.7783165.2797794-3.4716768.6816368-4.9999981h5.3046913v3.0502892c-.979497.1987343-1.7509756.9702206-1.9497089 1.9497089H9.0136738m4.9863233.4999981c0-.8286123.6713905-1.4999943 1.5000029-1.4999943.8286114 0 1.5000019.671382 1.5000019 1.4999943 0 .8281307-.6713905 1.5000019-1.5000019 1.5000019-.8286123 0-1.5000029-.6718712-1.5000029-1.5000019m-.65625-11.7558575c.3520536.6088901.9448252 1.0610394 1.6562548 1.2055712v4.0502939H9.9892616c.7792969-2.395513 1.9648409-4.2768569 3.3544855-5.2558651m-1.2509765-.2597604c-1.3369093 1.2304692-2.4428654 3.1528287-3.1655254 5.5156255H4.8432651c1.6225528-2.6494179 4.1957955-4.6484413 7.2495055-5.5156255M4.2919893 11H8.654787c-.3813496 1.5366201-.6044922 3.2241173-.6406288 4.9999981H3.0253916C3.0966802 14.2109394 3.5429657 12.5205107 4.2919893 11m-1.2665977 6.0000019h4.9887667c.0361366 1.7763615.2592792 3.4638672.6406288 4.9999981H4.2919893c-.7490236-1.5205097-1.1953091-3.2109394-1.2665977-4.9999981m1.8178735 5.9999943h4.0839801c.7226601 2.3623085 1.8286161 4.2851562 3.1655254 5.515625-3.05371-.8671837-5.6269527-2.8662071-7.2495055-5.515625m8.500482 5.2558651c-1.3896446-.979496-2.5751886-2.8603516-3.3544855-5.2558651h5.0107403v4.0507832c-.7114296.1445312-1.3042011.5957031-1.6562548 1.2050819M15.5 31c-.8286123 0-1.5000029-.6718712-1.5000029-1.5000038 0-.8281231.6713905-1.4999943 1.5000029-1.4999943.8286114 0 1.5000019.6718712 1.5000019 1.4999943C17.0000019 30.3281288 16.3286114 31 15.5 31m2.2060566-2.6523418c-.3427773-.6552734-.9594784-1.1455059-1.7060585-1.2968788v-8.1015568c.7465801-.1513729 1.3632812-.6416073 1.7060585-1.2968788 1.9511662.9912071 3.2939472 3.0136719 3.2939472 5.3476524 0 2.3339901-1.3427811 4.3564453-3.2939472 5.347662m1.8427715-.0341816C21.046875 27.0302715 22 25.1279316 22 22.9999962c0-2.7978497-1.6455116-5.2050762-4.0175762-6.3256836l.0175743-.1743164c0-1.2094727-.8593731-2.2177677-2-2.449707V5.9497099c.8984432-.1826234 1.61133-.851563 1.8779316-1.7163119 5.7587872 1.1142554 10.1220722 6.1874967 10.1220722 12.2665977 0 5.4736409-3.541996 10.1259828-8.4511738 11.8134809" fill="#0062ff" />
        <path class="st1" d="M27.8308182 11h-1.1080933c.4628582.9397507.8110733 1.9459677 1.0260086 2.9999971h1.019989c-.1964359-1.0476532-.5142421-2.0530824-.9379043-2.9999971M25.0838165 6.9999986h-1.4741268c1.0035954.8568878 1.870285 1.8694158 2.5622044 3.0000052h1.1605186c-.6085281-1.103445-1.367342-2.112689-2.2485962-3.0000052" />
    </g>
    <g id="Bars">
        <path class="st2" d="M23.6096897 6.9999986h-5.6096916v3.0000052h8.171896c-.6919194-1.1305895-1.558609-2.1431174-2.5622044-3.0000052m8.3903141 0h-6.9161873c.8812542.8873162 1.6400681 1.8965602 2.2485962 3.0000052h4.6675911V6.9999986M26.7227249 11h-8.7227268v2.9999971h9.7487354C27.5337982 12.9459677 27.1855831 11.9397507 26.7227249 11M31 11h-3.1691818c.4236622.9469147.7414684 1.9523439.9379044 2.9999971H31V11" />
    </g>
</svg>
