<?xml version="1.0" encoding="UTF-8" standalone="no"?><!DOCTYPE svg PUBLIC "-//W3C//DTD SVG 1.1//EN" "http://www.w3.org/Graphics/SVG/1.1/DTD/svg11.dtd"><svg width="100%" height="100%" viewBox="0 0 200 200" version="1.1" xmlns="http://www.w3.org/2000/svg" xmlns:xlink="http://www.w3.org/1999/xlink" xml:space="preserve" xmlns:serif="http://www.serif.com/" style="fill-rule:evenodd;clip-rule:evenodd;stroke-linejoin:round;stroke-miterlimit:1.41421;"><path id="Logo" d="M136.221,17.764l45.683,26.375c4.954,2.86 8.006,8.146 8.006,13.867c0,19.473 0,64.515 0,83.988c0,5.721 -3.052,11.007 -8.006,13.867c-16.863,9.736 -55.872,32.258 -72.735,41.994c-4.955,2.86 -11.058,2.86 -16.012,0c-16.864,-9.736 -55.872,-32.258 -72.736,-41.994c-4.954,-2.86 -8.006,-8.146 -8.006,-13.867c0,-19.473 0,-64.515 0,-83.988c0,-5.721 3.052,-11.007 8.006,-13.867c16.864,-9.736 55.872,-32.258 72.736,-41.994c4.954,-2.86 11.057,-2.86 16.012,0l26.024,15.026l0.296,0.067c0.286,0.204 0.526,0.375 0.732,0.526Zm-61.193,150.41l18.129,10.466c4.954,2.861 11.057,2.861 16.012,0l17.528,-10.119c-0.201,-1.735 -0.42,-3.467 -0.656,-5.197l-50.629,-1.552c-0.151,2.133 -0.28,4.267 -0.384,6.402Zm62.203,-5.736l28.033,-16.184c4.954,-2.861 8.006,-8.147 8.006,-13.867c0,-16.019 0,-48.755 0,-64.774c0,-5.72 -3.052,-11.006 -8.006,-13.867l-27.335,-15.782c-0.036,0.435 -0.073,0.869 -0.111,1.303l-0.023,0.256c-0.485,4.756 -1.101,9.5 -1.913,14.212c-0.057,0.303 -0.115,0.607 -0.173,0.91c-0.264,1.361 -0.541,2.718 -0.838,4.072c-0.103,0.47 -0.205,0.941 -0.316,1.41c-0.034,0.142 -0.201,0.789 -0.203,0.798c-0.113,0.44 -0.164,0.637 -0.28,1.075c-0.274,1.035 -0.562,2.067 -0.859,3.096l-0.046,0.158c-0.447,1.366 -0.91,2.726 -1.4,4.078c-0.058,0.159 -0.124,0.314 -0.186,0.472c-0.168,0.425 -0.182,0.46 -0.352,0.881c-0.332,0.82 -0.671,1.637 -1.024,2.447c-0.07,0.161 -0.15,0.317 -0.225,0.474c-0.063,0.133 -0.126,0.265 -0.189,0.397c-0.246,0.512 -0.497,1.022 -0.751,1.531c-0.483,0.963 -0.982,1.918 -1.498,2.863c-0.243,0.444 -0.491,0.884 -0.741,1.324l-0.066,0.114c-0.771,1.252 -1.573,2.485 -2.418,3.689c-0.304,0.434 -0.615,0.864 -0.931,1.29c-0.125,0.167 -0.251,0.342 -0.381,0.506c-1.168,1.479 -2.402,2.908 -3.743,4.234c-0.063,0.062 -0.131,0.119 -0.198,0.179c-0.175,0.157 -0.351,0.313 -0.529,0.468c-0.549,0.476 -1.113,0.935 -1.688,1.379c-0.082,0.062 -0.081,0.062 -0.164,0.122c-1.101,0.785 -2.242,1.513 -3.442,2.138c-0.298,0.155 -0.602,0.299 -0.908,0.437c-0.49,0.223 -0.989,0.426 -1.497,0.606c-0.587,0.208 -1.187,0.385 -1.798,0.515c-0.249,0.053 -0.501,0.099 -0.755,0.132c0.225,0.117 0.448,0.237 0.67,0.36c0.495,0.276 0.981,0.57 1.457,0.878c3.725,2.416 6.787,5.735 9.324,9.352c0.422,0.602 0.83,1.213 1.226,1.832c0.521,0.816 1.02,1.645 1.499,2.485c0.638,1.118 1.241,2.255 1.814,3.407c0.721,1.451 1.395,2.925 2.03,4.415c0.863,2.028 1.653,4.086 2.385,6.164c1.006,2.856 1.903,5.75 2.716,8.666c1.055,3.783 1.97,7.605 2.779,11.448c1.005,4.776 1.847,9.586 2.558,14.415c0.171,1.161 0.335,2.323 0.49,3.486Zm-72.88,-0.429c0.087,-1.063 0.18,-2.126 0.279,-3.188c0.025,-0.268 0.056,-0.535 0.086,-0.803c0.026,-0.247 0.053,-0.493 0.081,-0.74c0.107,-0.963 0.22,-1.926 0.339,-2.887c0.281,-2.272 0.594,-4.541 0.947,-6.803c0.133,-0.854 0.273,-1.706 0.416,-2.558l0.068,-0.401c0.4,-2.142 0.838,-4.278 1.321,-6.402c0.071,-0.284 0.142,-0.567 0.213,-0.85c0.231,-0.899 0.465,-1.796 0.711,-2.69c0.096,-0.349 0.19,-0.687 0.288,-1.035c0.053,-0.186 0.1,-0.373 0.159,-0.557c0.41,-1.283 0.842,-2.559 1.289,-3.83l0.091,-0.254c0.474,-1.239 0.97,-2.469 1.487,-3.691l0.047,-0.113c0.643,-1.393 1.31,-2.775 2.014,-4.138c0.419,-0.812 0.852,-1.616 1.296,-2.415l0.105,-0.188c0.751,-1.254 1.538,-2.488 2.365,-3.693c0.302,-0.441 0.61,-0.878 0.924,-1.31c0.128,-0.176 0.255,-0.354 0.387,-0.525c1.152,-1.497 2.379,-2.942 3.712,-4.281c0.062,-0.062 0.128,-0.118 0.193,-0.177c0.058,-0.053 0.117,-0.107 0.176,-0.16c0.285,-0.256 0.573,-0.508 0.865,-0.755c0.418,-0.354 0.843,-0.701 1.28,-1.03c0.121,-0.091 0.247,-0.177 0.371,-0.264c0.158,-0.112 0.318,-0.221 0.478,-0.33c0.539,-0.363 1.09,-0.708 1.654,-1.03c0.361,-0.206 0.727,-0.407 1.101,-0.588c0.452,-0.219 0.91,-0.424 1.378,-0.608c0.641,-0.252 1.298,-0.467 1.968,-0.629c0.464,-0.111 0.935,-0.198 1.41,-0.246c0.296,-0.031 0.595,-0.048 0.893,-0.032l0.017,0.002l0.068,0.073l-0.073,0.068c-0.047,0 -0.094,0.003 -0.144,0.006c-0.017,0.002 -0.069,0.005 -0.052,0.004c-0.068,0.007 -0.133,0.014 -0.2,0.023c-0.934,0.133 -1.833,0.47 -2.664,0.911c-0.718,0.383 -1.387,0.851 -2.009,1.374c-0.254,0.214 -0.501,0.433 -0.74,0.663c-0.466,0.45 -0.902,0.932 -1.307,1.439c-0.148,0.185 -0.292,0.374 -0.433,0.566c-0.046,0.062 -0.09,0.126 -0.136,0.189c-0.177,0.241 -0.354,0.481 -0.522,0.728c-0.388,0.569 -0.742,1.159 -1.075,1.761c-0.035,0.064 -0.075,0.125 -0.112,0.187c-0.038,0.064 -0.075,0.128 -0.113,0.191c-0.353,0.608 -0.686,1.226 -0.994,1.858c-0.378,0.773 -0.718,1.563 -1.035,2.362c-0.073,0.183 -0.149,0.364 -0.221,0.546c-0.177,0.45 -0.345,0.903 -0.506,1.358c-0.158,0.45 -0.308,0.902 -0.451,1.357l31.306,-1.358c-0.792,-1.47 -1.65,-2.906 -2.596,-4.282c-0.9,-1.307 -1.88,-2.562 -2.97,-3.715c-1.497,-1.582 -3.222,-2.997 -5.212,-3.909c-0.57,-0.261 -1.159,-0.479 -1.763,-0.646c-0.389,-0.108 -0.784,-0.185 -1.178,-0.272c-0.217,-0.049 -0.217,-0.049 -0.433,-0.1c-0.5,-0.124 -0.996,-0.258 -1.488,-0.411c-0.903,-0.281 -1.79,-0.613 -2.656,-0.995c-0.856,-0.377 -1.69,-0.802 -2.501,-1.269c-0.619,-0.357 -1.224,-0.739 -1.814,-1.143c-3.74,-2.562 -6.824,-5.979 -9.379,-9.701c-0.374,-0.544 -0.737,-1.096 -1.09,-1.655c-0.515,-0.814 -1.009,-1.641 -1.483,-2.48c-0.628,-1.11 -1.222,-2.24 -1.786,-3.384c-0.707,-1.434 -1.368,-2.892 -1.989,-4.365c-0.839,-1.993 -1.607,-4.015 -2.315,-6.058c-0.917,-2.641 -1.736,-5.315 -2.478,-8.01c-0.97,-3.521 -1.81,-7.078 -2.547,-10.655c-0.925,-4.484 -1.695,-9.001 -2.328,-13.536c-0.135,-0.962 -0.264,-1.924 -0.387,-2.888l-27.893,16.104c-4.954,2.861 -8.006,8.147 -8.006,13.867c0,16.019 0,48.755 0,64.774c0,5.72 3.052,11.006 8.006,13.867l27.29,15.755Zm11.405,-4.906l49.111,-1.506c-0.589,-3.503 -1.258,-6.993 -2.021,-10.462c-0.057,-0.263 -0.116,-0.525 -0.174,-0.787l-45.318,-1.615c-0.164,1.16 -0.315,2.321 -0.453,3.483c-0.043,0.326 -0.086,0.651 -0.128,0.977c-0.418,3.294 -0.757,6.599 -1.017,9.91Zm2.281,-18.992l42.707,-1.522c-0.436,-1.583 -0.898,-3.16 -1.391,-4.727c-0.763,-2.426 -1.598,-4.834 -2.535,-7.2l-36.052,-1.564c-0.064,0.259 -0.126,0.519 -0.187,0.78c-0.288,1.244 -0.536,2.496 -0.755,3.754c-0.064,0.307 -0.124,0.615 -0.184,0.923c-0.178,0.924 -0.342,1.851 -0.489,2.781c-0.042,0.229 -0.084,0.459 -0.125,0.689c-0.08,0.457 -0.159,0.914 -0.233,1.373c-0.102,0.62 -0.195,1.242 -0.287,1.864c-0.061,0.337 -0.118,0.674 -0.175,1.012c-0.102,0.612 -0.201,1.224 -0.294,1.837Zm29.952,-42.731c0.021,-0.004 0.043,-0.009 0.064,-0.013c0.93,-0.205 1.815,-0.589 2.634,-1.069c0.668,-0.392 1.291,-0.853 1.877,-1.359c0.691,-0.597 1.327,-1.253 1.906,-1.96c0.15,-0.184 0.296,-0.371 0.439,-0.561c0.088,-0.117 0.172,-0.237 0.26,-0.355c0.136,-0.184 0.273,-0.368 0.404,-0.555c0.436,-0.621 0.833,-1.266 1.205,-1.927c0.035,-0.064 0.075,-0.124 0.113,-0.187c0.038,-0.063 0.077,-0.127 0.115,-0.19c0.485,-0.821 0.932,-1.662 1.337,-2.525c0.26,-0.552 0.5,-1.113 0.732,-1.677c0.107,-0.263 0.219,-0.524 0.324,-0.788c0.179,-0.45 0.349,-0.903 0.511,-1.359c0.246,-0.689 0.471,-1.384 0.68,-2.084l-32.616,1.222c0.498,0.928 1.022,1.841 1.578,2.735c1.022,1.646 2.151,3.23 3.427,4.689c1.76,2.011 3.83,3.815 6.263,4.962c0.687,0.324 1.4,0.593 2.131,0.799c0.231,0.064 0.463,0.123 0.696,0.175c0.221,0.049 0.444,0.094 0.665,0.142c0.213,0.049 0.213,0.049 0.426,0.1c0.422,0.106 0.843,0.22 1.26,0.349c0.825,0.254 1.635,0.556 2.426,0.901c0.386,0.168 0.767,0.347 1.143,0.535Zm-23.383,-22.739l37.268,1.396c0.257,-1.097 0.481,-2.2 0.685,-3.309c0.034,-0.193 0.039,-0.192 0.081,-0.396c0.056,-0.27 0.11,-0.54 0.165,-0.81c0.164,-0.843 0.317,-1.687 0.458,-2.533c0.023,-0.145 0.053,-0.288 0.08,-0.432c0.028,-0.149 0.055,-0.297 0.082,-0.445c0.107,-0.603 0.212,-1.206 0.31,-1.811c0.068,-0.416 0.13,-0.833 0.193,-1.25c0.068,-0.37 0.132,-0.742 0.197,-1.113c0.099,-0.585 0.194,-1.171 0.286,-1.757l-43.432,1.413c0.429,1.561 0.885,3.114 1.373,4.657c0.682,2.152 1.426,4.288 2.254,6.39Zm-5.518,-18.76l46.041,1.498c0.033,-0.233 0.066,-0.466 0.098,-0.699l-0.003,0.019l0.077,-0.575c0.049,-0.372 0.096,-0.744 0.143,-1.116c0.035,-0.289 0.07,-0.577 0.105,-0.866c0.039,-0.29 0.077,-0.581 0.115,-0.871c0.051,-0.399 0.101,-0.798 0.15,-1.197c0.001,-0.006 -0.003,0.025 -0.003,0.019c0.049,-0.409 0.098,-0.817 0.146,-1.225c0,-0.006 -0.004,0.024 -0.003,0.018c0.141,-1.256 0.275,-2.513 0.394,-3.772c0.124,-1.315 0.234,-2.631 0.333,-3.948l-49.711,1.373c0.595,3.793 1.293,7.571 2.114,11.322l0.004,0.02Zm-3.569,-22.338c0.121,1.132 0.252,2.263 0.39,3.393l51.11,1.411c0.018,-0.278 0.037,-0.557 0.054,-0.836l-0.001,0.016c0.031,-0.493 0.06,-0.986 0.089,-1.48c0.028,-0.497 0.055,-0.994 0.081,-1.491c0.012,-0.247 0.024,-0.494 0.036,-0.741l-18.109,-10.455c-4.955,-2.861 -11.058,-2.861 -16.012,0l-17.638,10.183Z" style="fill:#db0a5b;"/></svg>