<?xml version="1.0" encoding="utf-8"?>
<!-- Generator: Adobe Illustrator 23.0.1, SVG Export Plug-In . SVG Version: 6.00 Build 0)  -->
<svg version="1.1" id="Layer_1" xmlns="http://www.w3.org/2000/svg" xmlns:xlink="http://www.w3.org/1999/xlink" x="0px" y="0px"
	 viewBox="0 0 235.5 235.5" style="enable-background:new 0 0 235.5 235.5;" xml:space="preserve">
<style type="text/css">
	.st0{fill:transparent;}
	.st1{fill:#7863EC;}
	.st2{fill:#E9E8FE;}
	.st3{fill:none;stroke:#7863EC;stroke-width:7.55;stroke-miterlimit:10;}
</style>
<title>Asset 1</title>
<g>
	<g id="Layer_1-2">
		<g id="Layer_1-2-2">
			<rect class="st0" width="235.5" height="235.5"/>
			<path class="st1" d="M58.9,101.3c0-10.9,2.9-21.7,8.5-31.1l-5.5-5.5C41.7,96.7,51.1,138.9,83,159.1c6.2,4,13.1,6.9,20.3,8.7V160
				C77,152.5,58.9,128.6,58.9,101.3z"/>
			<path class="st1" d="M188.2,101.3c0-37.8-30.6-68.4-68.4-68.4c-12.3,0-24.3,3.3-34.9,9.5l5.5,5.5C120,31.8,157,42.5,173.2,72
				s5.4,66.5-24.1,82.7c-4.3,2.4-9,4.2-13.7,5.5v7.8C166.3,160.7,188.2,133.1,188.2,101.3z"/>
			<path class="st2" d="M120.2,132.4c-17.9,0-32.4-14.5-32.4-32.4s14.5-32.4,32.4-32.4c17.9,0,32.4,14.5,32.5,32.4c0,0,0,0,0,0l0,0
				C152.6,117.8,138.1,132.4,120.2,132.4z"/>
			<path class="st1" d="M119.7,71.4c15.8,0,28.6,12.8,28.6,28.6s-12.8,28.6-28.6,28.6S91.1,115.7,91.1,100c0,0,0,0,0,0l0,0
				C91.1,84.2,103.9,71.4,119.7,71.4 M119.7,63.6c-20.1,0-36.3,16.2-36.3,36.3c0,20.1,16.2,36.3,36.3,36.3S156,120,156,100
				c0,0,0,0,0,0l0,0C156,79.9,139.7,63.6,119.7,63.6L119.7,63.6z"/>
			<line class="st3" x1="119.1" y1="134.3" x2="119.1" y2="198.1"/>
			<line class="st3" x1="52.8" y1="33.6" x2="94.5" y2="75.3"/>
			<circle class="st2" cx="40.8" cy="21.1" r="16"/>
			<path class="st1" d="M40.8,9c6.7,0,12.1,5.4,12.1,12.1s-5.4,12.1-12.1,12.1s-12.1-5.4-12.1-12.1c0,0,0,0,0,0
				C28.7,14.4,34.1,9,40.8,9C40.8,9,40.8,9,40.8,9L40.8,9 M40.8,1.3c-11,0-19.8,8.9-19.8,19.8s8.9,19.8,19.8,19.8
				c11,0,19.8-8.9,19.8-19.8c0,0,0,0,0,0C60.6,10.1,51.7,1.3,40.8,1.3z"/>
			<circle class="st2" cx="119.1" cy="214.6" r="16.1"/>
			<path class="st1" d="M119.1,202.3c6.8,0,12.3,5.5,12.3,12.3c0,6.8-5.5,12.3-12.3,12.3c-6.8,0-12.3-5.5-12.3-12.3c0,0,0,0,0,0
				C106.9,207.8,112.4,202.3,119.1,202.3C119.1,202.3,119.1,202.3,119.1,202.3L119.1,202.3 M119.1,194.8c-11,0-19.8,8.9-19.8,19.8
				c0,11,8.9,19.8,19.8,19.8c11,0,19.8-8.9,19.8-19.8C139,203.7,130.1,194.8,119.1,194.8L119.1,194.8z"/>
			<circle class="st1" cx="119.1" cy="214.6" r="6.1"/>
			<circle class="st1" cx="40.8" cy="21.1" r="6.1"/>
		</g>
	</g>
</g>
</svg>
