<?xml version="1.0" encoding="utf-8"?>
<!-- Generator: Adobe Illustrator 21.0.2, SVG Export Plug-In . SVG Version: 6.00 Build 0)  -->
<svg version="1.1" id="Layer_1" xmlns="http://www.w3.org/2000/svg" xmlns:xlink="http://www.w3.org/1999/xlink" x="0px" y="0px"
	 viewBox="0 0 32 32" style="enable-background:new 0 0 32 32;" xml:space="preserve">
<style type="text/css">
	.st0{fill:#8EE9D4;}
	.st1{fill:#00BAA1;}
</style>
<g>
	<g>
		<path class="st0" d="M15.8,3.9V1C7.6,1,1,7.6,1,15.9h2.9C3.9,9.3,9.2,3.9,15.8,3.9z"/>
	</g>
	<path class="st1" d="M29.6,9.8L27,11c-1.9-4.2-6.1-7.1-11-7.1c-6.6,0-12,5.4-12,12c0,4.9,3,9.2,7.3,11.1l-1.3,2.8
		c1.9,0.8,4,1.2,6,1.2s4.1-0.4,6-1.2L20.6,27c2.8-1.2,5.1-3.4,6.3-6.2l2.7,1.2c0.9-1.9,1.3-4,1.3-6.1C30.9,13.8,30.4,11.8,29.6,9.8z
		 M18.7,14.6c-0.5-1-1.5-1.8-2.7-1.8c-1.7,0-3,1.3-3,3c0,1.7,1.3,3,3,3c1.2,0,2.3-0.7,2.7-1.8l6.4,2.8c-1.5,3.7-5,6.1-9.1,6.1
		c-5.5,0-10-4.5-10-10s4.5-10,10-10c4.1,0,7.6,2.4,9.1,5.9L18.7,14.6z M25,13.5v4.8L24,18v-4L25,13.5z M22,14.8V17l-1-0.4v-1.3
		L22,14.8z M28,19.8l-1-0.4v-6.6l1-0.4V19.8z"/>
</g>
</svg>
