<svg id="Layer_1" xmlns="http://www.w3.org/2000/svg" xmlns:xlink="http://www.w3.org/1999/xlink" viewBox="0 0 32 32"><style>.st0{fill:#fff}.st2{fill:#0a1429}</style><path class="st0" d="M22.8 19.3L19 15.4l5-4.9-6.2-6.2c-6.1-6-16-2.5-16-2.5s-3.6 9.9 2.5 15.9l6.2 6.2 5-4.9 3.9 3.9 3.4-3.6z"/><path class="st0" d="M5.6 5.6c-.4 2.4-.5 6.3 2 8.8l2.9 2.9"/><path d="M28.4 28.4l-2.5 2.5-7.4-7.4.8-.8-3.9-3.7-4.9 5-6.2-6.2c-6-6.1-2.5-16-2.5-16l26.6 26.6z" fill="#00b4c8"/><path class="st2" d="M10.5 25l-6.7-6.7C-2.5 11.9.9 2 1.1 1.5l.1-.3.3-.1C2 .9 11.9-2.5 18.3 3.8l6.7 6.7-4.9 5 3.9 3.9-4.6 4.6-3.9-3.9-5 4.9zM2.4 2.4c-.5 1.7-2.6 9.8 2.5 14.8l5.6 5.6 5-4.9 3.9 3.9 2.4-2.4-3.9-3.9 5-4.9L17.2 5C12.1-.2 4.1 1.9 2.4 2.4z"/><path class="st2" d="M25.9 32l-8.4-8.4 6.1-6.1 8.4 8.4-6.1 6.1zm-6.3-8.4l6.3 6.3 4-4-6.3-6.3-4 4z"/><defs><path id="SVGID_1_" d="M28.4 28.4l-2.5 2.5-7.4-7.4.8-.8-3.9-3.7-4.9 5-6.2-6.2c-6-6.1-2.5-16-2.5-16l26.6 26.6z"/></defs><clipPath id="SVGID_2_"><use xlink:href="#SVGID_1_" overflow="visible"/></clipPath><g clip-path="url(#SVGID_2_)"><path class="st2" d="M10 17.9L7 15c-1.4-1.4-2.2-3.3-2.3-5.3-.2-2.1.1-4.2.9-6.1L6.8 1l1.4.6L7 4.2c-.7 1.7-1 3.5-.8 5.3.1 1.6.8 3.2 1.9 4.4l2.9 2.9-1 1.1z"/></g></svg>