<?xml version="1.0" encoding="utf-8"?>
<!-- Generator: Adobe Illustrator 22.0.1, SVG Export Plug-In . SVG Version: 6.00 Build 0)  -->
<svg version="1.1" id="Layer_1" xmlns="http://www.w3.org/2000/svg" xmlns:xlink="http://www.w3.org/1999/xlink" x="0px" y="0px"
	 width="32px" height="32px" viewBox="0 0 32 32" style="enable-background:new 0 0 32 32;" xml:space="preserve">
<style type="text/css">
	.st0{fill:#9855D4;}
</style>
<path id="border" class="st0" d="M27.7,1C29.5,1,31,2.5,31,4.3v23.3c0,1.8-1.5,3.4-3.3,3.4H4.3C2.5,31.1,1,29.5,1,27.7V4.3
	C1,2.5,2.5,1,4.3,1H28 M27.8,0H4.2C1.9,0,0,1.9,0,4.2v23.6C0,30.1,1.9,32,4.2,32h23.6c2.3,0,4.2-1.9,4.2-4.2V4.2
	C32,1.9,30.1,0,27.8,0z"/>
<g id="curve2">
	<path class="st0" d="M29,19.5c-9.1,0-16.5-7.4-16.5-16.5c0-0.3,0.2-0.5,0.5-0.5s0.5,0.2,0.5,0.5c0,8.5,7,15.5,15.5,15.5
		c0.3,0,0.5,0.2,0.5,0.5S29.3,19.5,29,19.5z"/>
</g>
<g id="curve1">
	<path class="st0" d="M28,14.5c-5.8,0-10.5-4.7-10.5-10.5c0-0.3,0.2-0.5,0.5-0.5s0.5,0.2,0.5,0.5c0,5.2,4.3,9.5,9.5,9.5
		c0.3,0,0.5,0.2,0.5,0.5S28.3,14.5,28,14.5z"/>
</g>
<path id="circle1" class="st0" d="M25,5.5c0.8,0,1.5,0.7,1.5,1.5S25.8,8.5,25,8.5S23.5,7.8,23.5,7S24.2,5.5,25,5.5 M25,4.5
	c-1.4,0-2.5,1.1-2.5,2.5s1.1,2.5,2.5,2.5s2.5-1.1,2.5-2.5S26.4,4.5,25,4.5L25,4.5z"/>
<g id="curve3">
	<path class="st0" d="M19,29.5c-0.3,0-0.5-0.2-0.5-0.5c0-8.5-7-15.5-15.5-15.5c-0.3,0-0.5-0.2-0.5-0.5s0.2-0.5,0.5-0.5
		c9.1,0,16.5,7.4,16.5,16.5C19.5,29.3,19.3,29.5,19,29.5z"/>
</g>
<g id="curve4">
	<path class="st0" d="M14,28.5c-0.3,0-0.5-0.2-0.5-0.5c0-5.2-4.3-9.5-9.5-9.5c-0.3,0-0.5-0.2-0.5-0.5s0.2-0.5,0.5-0.5
		c5.8,0,10.5,4.7,10.5,10.5C14.5,28.3,14.3,28.5,14,28.5z"/>
</g>
<path id="circle2" class="st0" d="M7,23.5c0.8,0,1.5,0.7,1.5,1.5S7.8,26.5,7,26.5S5.5,25.8,5.5,25S6.2,23.5,7,23.5 M7,22.5
	c-1.4,0-2.5,1.1-2.5,2.5s1.1,2.5,2.5,2.5s2.5-1.1,2.5-2.5S8.4,22.5,7,22.5L7,22.5z"/>
</svg>
